<svg width="391" height="415" viewBox="0 0 391 415" fill="none" xmlns="http://www.w3.org/2000/svg">
<path opacity="0.6" d="M214.882 93.5833C202.529 90.6578 188.94 93.3443 179.088 102.933C167.732 113.987 160.079 128.425 157.601 143.473C150.027 189.488 259.753 171.503 243.569 118.096C239.695 105.312 227.473 96.5649 214.882 93.5833Z" fill="#EDF2FF"/>
<path d="M245.329 64.081C245.223 64.5379 245.117 64.9948 245.021 65.4304C245.021 65.4386 245.019 65.4467 245.016 65.4541C245.012 65.4614 245.007 65.4678 245 65.4729C243.22 72.9103 241.653 77.9784 238.729 82.7808L228.517 73.0484L234.099 62.4554L234.46 61.7861V61.7754L234.47 61.7542L234.544 61.7754L235.71 62.0198L245.329 64.081Z" fill="#F9B384"/>
<path d="M247.236 56.2389C247.215 56.5683 247.183 56.8977 247.141 57.227C247.006 58.2602 246.815 59.2852 246.569 60.2976C246.41 60.9776 246.23 61.6576 246.039 62.3057C245.817 63.0813 245.573 63.8251 245.34 64.5051C245.277 64.6751 245.224 64.8451 245.171 65.0044C245.128 65.1532 245.075 65.2913 245.022 65.4294C245.022 65.4377 245.02 65.4457 245.017 65.4531C245.013 65.4604 245.008 65.4669 245.001 65.4719C244.927 65.6738 244.863 65.865 244.789 66.0563C244.787 66.0789 244.78 66.1007 244.768 66.1201C244.715 66.2794 244.652 66.4282 244.599 66.5769C244.228 67.565 243.963 68.1706 243.963 68.1706C240.012 67.5225 237.141 65.4082 235.096 62.6776C234.884 62.4014 234.683 62.1251 234.492 61.8382C234.482 61.817 234.471 61.8064 234.461 61.7851V61.7745C231.833 57.8645 230.647 52.9771 230.107 49.3115C230.096 49.269 230.096 49.2372 230.085 49.1947C229.895 47.8665 229.789 46.6978 229.725 45.8159C229.71 45.5801 229.743 45.3436 229.824 45.1213C229.904 44.899 230.029 44.6957 230.191 44.5241C230.353 44.3526 230.549 44.2164 230.766 44.1243C230.983 44.0321 231.216 43.9859 231.452 43.9885L232.999 44.0097L234.694 41.141L246.622 46.4747C246.993 48.4169 247.216 50.3846 247.289 52.3609C247.345 53.6535 247.327 54.9483 247.236 56.2389Z" fill="#F9B384"/>
<path d="M239.63 57.8656L235.71 62.02L234.46 61.7862V61.7756C231.833 57.8656 230.647 52.9782 230.106 49.3126L233.136 50.0245C233.274 52.022 234.926 56.1125 234.926 56.1125L239.63 57.8656Z" fill="#E28B6D"/>
<path d="M234.333 49.897C233.094 50.9276 231.06 49.8332 230.085 49.1957C229.895 47.8676 229.789 46.6989 229.725 45.817C229.71 45.5811 229.743 45.3447 229.824 45.1224C229.904 44.9001 230.029 44.6968 230.191 44.5252C230.353 44.3536 230.549 44.2175 230.766 44.1253C230.983 44.0332 231.216 43.9869 231.452 43.9895L232.999 44.0108C232.999 44.0108 235.869 48.6114 234.333 49.897Z" fill="#E28B6D"/>
<path d="M247.287 52.3608L246.77 52.2939L237.81 50.2302L234.927 56.1154L239.215 58.1112C237.899 58.5708 236.2 59.616 234.491 61.8422C236.581 64.9675 239.61 67.4571 243.959 68.1711C243.959 68.1711 246.866 61.4538 247.235 56.2447C247.325 54.9521 247.342 53.6554 247.287 52.3608ZM240.506 57.784C240.76 56.934 240.751 55.5881 238.755 54.7129L241.366 54.8988L241.717 57.7356C241.313 57.6905 240.905 57.7068 240.506 57.784Z" fill="#F9B384"/>
<path d="M246.494 73.4838C236.833 98.0485 218.474 126.204 201.069 145.382C194.681 152.416 188.431 158.238 182.785 162.244L173.473 138.157L172.308 135.14L175.231 132.516L175.761 132.037L209.502 101.767L231.441 65.3983L246.494 73.4838Z" fill="#1F3C88"/>
<path d="M197.063 375.669L175.076 376.563L171.617 392.005L192.246 395.24L197.063 375.669Z" fill="#F9B384"/>
<path d="M211.233 414.529L192.246 395.24L171.617 392.005L166.609 414.363L211.233 414.529Z" fill="#D3DFFF"/>
<path d="M170.47 397.604L170.268 398.648L180.469 400.638L180.671 399.594L170.47 397.604Z" fill="#708CD5"/>
<path d="M198.233 401.757L191.743 404.542L192.16 405.519L198.65 402.735L198.233 401.757Z" fill="#708CD5"/>
<path d="M202.338 405.476L195.848 408.261L196.265 409.238L202.755 406.453L202.338 405.476Z" fill="#708CD5"/>
<path d="M148.326 223.534L186.788 295.331L166.614 381.507L204.105 381.296L224.892 313.297C228.324 302.071 227.499 289.969 222.577 279.316L200.03 230.519L148.326 223.534Z" fill="#102048"/>
<path d="M143.354 207.941C118.534 241.155 85.8631 259.844 49.4531 271.595C50.1695 270.328 50.7687 268.998 51.2434 267.621C52.61 263.584 52.4617 259.451 49.4531 255.18L48.3408 243.62L115.271 194.023L131.267 204.839L143.354 207.941Z" fill="#DDA143"/>
<path d="M13.0146 193.273C26.0299 218.634 26.7261 253.819 49.4564 255.184L155.361 186.692L124.201 132.481L39.4169 166.046L13.0146 193.273Z" fill="#C68D35"/>
<path opacity="0.3" d="M51.2444 267.62C52.611 263.583 52.4627 259.45 49.4541 255.178C69.4722 245.036 93.2902 228.928 118.641 210.416C97.8589 231.512 75.8619 251.144 51.2444 267.62Z" fill="#C68D35"/>
<path d="M146.141 196.63C122.342 238.401 82.2517 257.305 30.1201 272.713L45.8081 283.122C48.3207 284.788 51.2747 285.657 54.2863 285.617C57.2979 285.577 60.2278 284.63 62.6955 282.898C95.4825 259.888 125.515 236.617 148.371 212.667L146.141 196.63Z" fill="#F3AD39"/>
<path d="M155.438 132.108C124.845 118.368 75.0467 141.756 25.7092 164.252C20.156 166.785 15.309 170.648 11.595 175.502C7.88108 180.356 5.4142 186.051 4.41168 192.086L0 218.635C29.0051 174.252 89.7773 144.377 155.438 132.108Z" fill="#F3AD39"/>
<path d="M176.745 133.089C176.608 137.711 176.417 141.589 176.459 142.333L158.736 145.085L148.577 137.626C153.408 132.091 155.654 119.458 158.45 108.514L169.584 115.176L176.809 119.49C177 123.166 176.904 128.488 176.745 133.089Z" fill="#F9B384"/>
<path d="M176.746 133.089C171.439 129.891 164.563 125.014 161.428 113.975L169.585 115.176L176.81 119.489C177 123.166 176.905 128.488 176.746 133.089Z" fill="#E28B6D"/>
<path d="M187.286 106.347C187.417 108.615 187.13 110.887 186.439 113.051C182.953 123.686 169.775 126.598 160.05 112.987L159.234 91.9711L166.11 86.0319L188.462 94.6911L187.064 103.967C187.183 104.755 187.257 105.55 187.286 106.347Z" fill="#F9B384"/>
<path d="M212.286 211.973C208.817 188.103 193.197 152.548 176.587 137.567L168.778 153.231L191.462 217.38L212.286 211.973Z" fill="#708CD5"/>
<path d="M201.131 211.973C195.867 187.577 188.736 161.996 176.588 137.567C170.452 144.653 152.417 130.854 152.417 130.854L143.121 138.872L167.664 222.664L201.131 211.973Z" fill="white"/>
<path d="M223.94 296.51L204.851 290.045L200.217 301.306L218.485 311.179L223.94 296.51Z" fill="#F9B384"/>
<path d="M229.642 335.297L218.486 311.179L200.218 301.305L191.96 321.373L229.642 335.297Z" fill="#D3DFFF"/>
<path d="M221.426 317.483L215.073 319.257L215.357 320.279L221.71 318.506L221.426 317.483Z" fill="#708CD5"/>
<path d="M223.724 322.266L217.368 324.038L217.652 325.061L224.008 323.289L223.724 322.266Z" fill="#708CD5"/>
<path d="M197.974 306.721L197.5 307.671L208.446 313.16L208.92 312.209L197.974 306.721Z" fill="#708CD5"/>
<path d="M168.159 198.048C194.468 199.938 221.515 204.649 245.583 215.113C258.553 220.752 262.858 238.596 256.942 251.473L233.111 303.346L198.528 292.53L220.511 246.633C154.072 248.622 146.798 224.143 146.798 224.143L168.159 198.048Z" fill="#1F3C88"/>
<path d="M180.805 213.711C172.139 229.276 159.501 237.829 143.886 243.8L142.106 227.948L138.844 198.857L133.822 154.02L137.17 138.126L152.414 130.858C169.152 148.569 174.576 188.146 180.805 213.711Z" fill="#708CD5"/>
<path d="M160.777 103.529C161.069 97.7794 162.658 94.7056 166.925 92.9276C175.029 100.333 189.989 100.066 197.47 93.2375C194.769 92.293 192.795 91.6008 190.849 89.5629C189.733 88.3942 189.172 87.6151 187.727 84.7254C182.531 74.3327 163.129 73.6256 160.393 83.6308C148.387 89.4745 154.187 98.3348 156.146 103.721L160.777 103.529Z" fill="#102048"/>
<path d="M164.809 170.914L166.175 160.905L172.311 157.735C172.311 157.735 175.353 158.25 174.072 162.194C172.791 166.139 164.809 170.914 164.809 170.914Z" fill="#E28B6D"/>
<path d="M160.942 173.269L164.809 170.914L169.792 162.592L176.477 159.236C176.57 159.189 176.673 159.162 176.777 159.156C176.881 159.151 176.986 159.167 177.083 159.204C177.181 159.24 177.271 159.297 177.346 159.37C177.421 159.443 177.48 159.53 177.52 159.627C178.366 160.348 178.832 161.394 178.839 162.833C180.343 164.093 180.629 165.507 179.952 167.041C182.026 167.924 182.804 169.009 182.192 170.313C183.124 171.844 183.672 173.312 183.302 175.105L173.017 182.56L162.914 186.31L160.942 173.269Z" fill="#F9B384"/>
<path opacity="0.3" d="M164.193 188.349C160.009 205.477 152.805 218.875 142.106 227.948L138.843 198.857L164.193 188.349Z" fill="#1F3C88"/>
<path d="M152.416 130.853L131.346 133.375C127.733 133.813 124.311 135.245 121.46 137.515C118.61 139.784 116.441 142.801 115.196 146.231C108.741 163.917 104.368 182.865 103.321 199.134C102.657 209.45 112.151 217.476 122.214 215.234C138.722 211.554 152.213 200.851 164.191 188.351L162.208 171.195L128.494 187.356L152.416 130.853Z" fill="#708CD5"/>
<path d="M163.891 107.327C162.612 110.126 160.521 112.021 157.814 110.776C155.107 109.532 151.764 105.556 153.5 101.719C154.769 98.9146 158.618 98.7481 161.325 99.9922C164.033 101.236 165.171 104.529 163.891 107.327Z" fill="#F9B384"/>
<path d="M139.31 161.359C138.55 163.574 137.732 165.766 136.9 167.952C136.079 170.142 135.191 172.305 134.34 174.483L131.651 180.962C130.722 183.108 129.789 185.253 128.782 187.368L128.398 187.211C129.146 184.991 129.967 182.802 130.793 180.613L133.368 174.087C134.271 171.931 135.137 169.757 136.071 167.614C136.994 165.466 137.931 163.322 138.926 161.203L139.31 161.359Z" fill="#1F3C88"/>
<path d="M128.567 187.035C131.316 185.599 134.074 184.183 136.852 182.812C139.622 181.421 142.423 180.096 145.207 178.735L153.622 174.784C156.442 173.499 159.263 172.217 162.12 171.009L162.298 171.384C159.562 172.846 156.792 174.236 154.02 175.622L145.658 179.686C142.851 180.996 140.06 182.342 137.237 183.623C134.423 184.922 131.589 186.177 128.745 187.412L128.567 187.035Z" fill="#1F3C88"/>
<g opacity="0.3">
<path opacity="0.3" d="M164.295 142.998C165.978 144.379 168.114 145.08 170.284 144.966C172.447 144.789 174.472 143.831 175.985 142.27L176.312 142.524C175.094 144.548 172.766 145.882 170.35 146.022C169.153 146.094 167.955 145.885 166.853 145.411C165.751 144.937 164.775 144.211 164.002 143.291L164.295 142.998Z" fill="#1F3C88"/>
<path opacity="0.3" d="M179.713 194.468C181.04 193.145 182.22 191.682 183.233 190.105C185.24 186.953 186.541 183.403 187.047 179.699C187.3 177.84 187.356 175.96 187.212 174.089L187.621 174.029C188.026 175.925 188.142 177.871 187.966 179.802C187.616 183.695 186.238 187.426 183.974 190.608C182.859 192.19 181.515 193.597 179.985 194.781L179.713 194.468Z" fill="#1F3C88"/>
<path opacity="0.3" d="M182.265 194.985C183.763 193.957 185.198 192.841 186.565 191.642C187.919 190.447 189.163 189.145 190.426 187.799L190.765 188.038C189.888 189.716 188.698 191.209 187.26 192.438C185.846 193.691 184.219 194.679 182.456 195.354L182.265 194.985Z" fill="#1F3C88"/>
</g>
<path d="M160.127 105.625C159.974 105.139 159.749 104.679 159.461 104.26C159.185 103.855 158.839 103.502 158.439 103.218C157.615 102.647 156.635 102.347 155.634 102.36L155.577 102.053C156.123 101.855 156.712 101.803 157.284 101.901C157.869 101.996 158.423 102.228 158.901 102.578C159.38 102.928 159.769 103.386 160.038 103.915C160.31 104.428 160.447 105.002 160.436 105.583L160.127 105.625Z" fill="#E28B6D"/>
<path d="M172.117 98.8135C170.318 98.3173 169.853 101.455 170.129 102.6C170.388 103.673 171.258 103.983 172.003 103.124C172.687 102.335 173.694 99.2483 172.117 98.8135Z" fill="#102048"/>
<path d="M183.678 100.81C183.445 99.8228 182.331 99.4642 181.712 100.259C181.455 100.63 181.297 101.061 181.251 101.511C181.147 102.196 180.96 103.052 181.196 103.755C181.49 104.637 182.294 105.035 182.889 104.2C183.466 103.372 183.919 101.852 183.678 100.81Z" fill="#102048"/>
<path d="M177.425 102.278C177.407 103.108 177.361 103.941 177.384 104.74C177.383 105.102 177.435 105.462 177.539 105.808C177.686 106.132 177.889 106.427 178.138 106.68C178.441 107 178.718 107.343 178.965 107.708C179.099 107.923 179.203 108.154 179.274 108.397C179.372 108.705 179.348 109.04 179.209 109.332C179.062 109.591 178.832 109.793 178.557 109.906C178.353 109.998 178.143 110.077 177.929 110.142C177.548 110.229 177.181 110.366 176.836 110.55L176.574 110.26C176.888 109.939 177.26 109.679 177.668 109.493C178.03 109.327 178.418 109.099 178.424 108.955C178.418 108.691 178.32 108.437 178.148 108.238C177.914 107.921 177.662 107.62 177.391 107.334C177.048 107 176.791 106.587 176.643 106.131C176.495 105.674 176.461 105.188 176.544 104.715C176.616 103.863 176.783 103.021 177.043 102.206L177.425 102.278Z" fill="#102048"/>
<path d="M171.362 109.883L178.712 113.469C177.454 115.926 171.826 115.66 171.362 109.883Z" fill="white"/>
<path opacity="0.4" d="M186.439 113.051C186.234 113.094 186.024 113.115 185.814 113.115C184.877 113.115 183.979 112.741 183.316 112.077C182.653 111.412 182.281 110.511 182.281 109.571C182.281 108.632 182.653 107.73 183.316 107.066C183.979 106.401 184.877 106.028 185.814 106.028C186.322 106.028 186.824 106.136 187.287 106.347C187.418 108.615 187.13 110.888 186.439 113.051Z" fill="#FC8879"/>
<path opacity="0.4" d="M166.662 110.901C168.612 110.901 170.193 109.315 170.193 107.359C170.193 105.404 168.612 103.818 166.662 103.818C164.712 103.818 163.131 105.404 163.131 107.359C163.131 109.315 164.712 110.901 166.662 110.901Z" fill="#FC8879"/>
<path d="M259.358 11.5301C256.839 9.32544 254.078 5.63781 251.256 1.57779C253.072 1.30473 254.616 0.867519 255.448 0C257.424 4.25685 259.515 6.91705 262.642 10.3234C261.366 9.90157 260.553 11.1258 259.358 11.5301Z" fill="#C6EAE9"/>
<path d="M112.615 104.595C110.347 102.61 107.86 99.289 105.319 95.6324C106.955 95.3865 108.346 94.9928 109.095 94.2116C110.874 98.0451 112.757 100.441 115.573 103.508C114.424 103.129 113.692 104.231 112.615 104.595Z" fill="#FBD682"/>
<path d="M153.992 73.2493C154.984 70.9665 156.834 68.2967 158.9 65.5295C159.304 66.9296 159.77 68.0928 160.401 68.6373C158.105 70.7622 156.784 72.7664 155.151 75.6885C155.235 74.6223 154.393 74.1415 153.992 73.2493Z" fill="#FBD682"/>
<path d="M258.467 151.912C259.568 149.377 261.622 146.413 263.917 143.34C264.365 144.894 264.883 146.186 265.583 146.789C263.034 149.148 261.566 151.374 259.753 154.619C259.847 153.436 258.912 152.902 258.467 151.912Z" fill="#EE6F57"/>
<path d="M308.126 12.4212C309.227 9.88634 311.282 6.9228 313.576 3.84876C314.024 5.40344 314.542 6.69516 315.242 7.29839C312.693 9.65711 311.226 11.8833 309.412 15.1278C309.506 13.9456 308.57 13.4114 308.126 12.4212Z" fill="#708CD5"/>
<path d="M69.3541 93.1929C68.3626 90.9101 66.5124 88.2403 64.4464 85.4731C64.0425 86.8729 63.5762 88.0363 62.9453 88.5809C65.2409 90.7058 66.5627 92.71 68.1957 95.6318C68.111 94.5656 68.9537 94.0848 69.3541 93.1929Z" fill="#708CD5"/>
<path d="M195.012 53.9277C193.911 51.3929 191.857 48.4293 189.562 45.3556C189.114 46.91 188.596 48.2017 187.896 48.8049C190.445 51.1637 191.912 53.3898 193.726 56.6344C193.632 55.4526 194.567 54.9185 195.012 53.9277Z" fill="#D3DFFF"/>
<path d="M293.187 52.8159C290.034 53.5748 285.626 53.9108 280.904 54.1403C281.785 52.8653 282.381 51.7027 282.23 50.8293C286.593 51.2203 289.832 50.9141 294.248 50.2333C293.17 50.8893 293.6 51.8897 293.187 52.8159Z" fill="#F5C7BE"/>
<path d="M104.134 29.3406C106.974 30.3871 110.943 30.8501 115.195 31.1667C114.401 29.4096 113.865 27.8053 114.002 26.6012C110.072 27.1404 107.155 26.7181 103.179 25.7794C104.15 26.6838 103.762 28.0632 104.134 29.3406Z" fill="#C6EAE9"/>
<path d="M201.023 15.9901C197.829 17.8885 193.192 19.3534 188.191 20.7094C188.827 18.4378 189.185 16.4063 188.812 15.0068C193.579 14.7425 196.972 13.5684 201.535 11.5364C200.539 12.8361 201.241 14.386 201.023 15.9901Z" fill="#EE6F57"/>
<path d="M266.586 103.568C268.973 105.173 271.705 108.034 274.525 111.21C272.977 111.667 271.679 112.233 271.038 113.086C268.933 109.637 266.875 107.585 263.851 105.013C264.996 105.223 265.586 104.064 266.586 103.568Z" fill="#C6EAE9"/>
<path d="M225.562 106.079C227.949 107.684 230.682 110.545 233.502 113.721C231.953 114.178 230.655 114.744 230.014 115.597C227.909 112.148 225.851 110.096 222.827 107.524C223.972 107.735 224.564 106.574 225.562 106.079Z" fill="#FBD682"/>
<path d="M121.082 56.896C123.769 58.7023 126.845 61.9229 130.02 65.4982C128.276 66.013 126.815 66.6505 126.093 67.6107C123.724 63.7292 121.408 61.4182 118.003 58.523C119.292 58.7594 119.958 57.4539 121.082 56.896Z" fill="#F5C7BE"/>
<path d="M294.952 88.0622C296.938 86.2206 298.987 82.9944 301.052 79.4199C299.434 78.9774 298.037 78.4063 297.222 77.4982C295.917 81.3446 294.351 83.6622 291.953 86.5845C293.029 86.3123 293.864 87.5578 294.952 88.0622Z" fill="#F5C7BE"/>
<path d="M362.744 82.4066C363.736 80.1223 365.586 77.4538 367.652 74.6866C368.056 76.0867 368.522 77.2498 369.153 77.7944C366.857 79.9193 365.536 81.9234 363.903 84.8455C363.987 83.7793 363.145 83.2983 362.744 82.4066Z" fill="#EE6F57"/>
<path d="M338.259 40.7316C337.433 44.0208 335.557 48.0601 333.416 52.2883C332.587 50.5533 331.725 49.1478 330.777 48.607C333.357 45.1635 334.677 42.149 336.213 37.8374C336.325 39.2654 337.539 39.6662 338.259 40.7316Z" fill="#D3DFFF"/>
<path d="M313.153 111.902C313.758 114.311 315.132 117.269 316.699 120.366C317.307 119.095 317.938 118.066 318.633 117.67C316.743 115.148 315.777 112.94 314.652 109.782C314.568 110.829 313.679 111.122 313.153 111.902Z" fill="#D3DFFF"/>
<path d="M387.778 35.2712C385.091 37.0775 382.014 40.2979 378.84 43.8734C380.583 44.3879 382.044 45.0256 382.766 45.9856C385.136 42.1028 387.454 39.7934 390.857 36.8976C389.568 37.1346 388.902 35.829 387.778 35.2712Z" fill="#FBD682"/>
</svg>
