<svg width="31" height="31" viewBox="0 0 31 31" fill="none" xmlns="http://www.w3.org/2000/svg">
<g clip-path="url(#clip0_121_1500)">
<path d="M28.3813 12.9864C28.3813 11.7994 28.2386 10.6459 27.9722 9.54078C27.2109 7.9539 26.1551 6.53416 24.8765 5.35196C22.5315 3.95107 19.7692 3.18758 16.8361 3.29451C8.74384 3.58954 2.423 10.3889 2.71792 18.4812C2.76118 19.665 2.94519 20.8103 3.25069 21.903C3.91081 23.1609 4.7585 24.3054 5.75733 25.2984C8.0501 26.7845 10.7834 27.6486 13.7193 27.6486C21.8168 27.6486 28.3813 21.084 28.3813 12.9864ZM20.7976 10.3055C22.6223 10.3055 24.1067 11.7296 24.1067 13.6147H22.431C22.431 12.6721 21.6982 11.9812 20.7976 11.9812C19.8969 11.9812 19.1641 12.6721 19.1641 13.6147H17.4884C17.4884 11.7296 18.9728 10.3055 20.7976 10.3055ZM10.2015 10.3055C12.0262 10.3055 13.5107 11.7296 13.5107 13.6147H11.835C11.835 12.6721 11.1022 11.9812 10.2015 11.9812C9.3008 11.9812 8.568 12.6721 8.568 13.6147H6.8923C6.8923 11.7296 8.37676 10.3055 10.2015 10.3055ZM7.40171 19.6771L8.80909 18.7676C10.0893 20.7486 12.2454 22.0918 14.5768 22.3607C17.568 22.706 20.5568 21.2953 22.1901 18.7676L23.5975 19.6771C21.8188 22.4297 18.7119 24.0876 15.47 24.0876C15.1092 24.0876 14.7473 24.0672 14.3848 24.0253C11.5612 23.6997 8.95068 22.0743 7.40171 19.6771Z" fill="#FFCE00"/>
<path d="M27.9728 9.5408C28.2392 10.646 28.3819 11.7994 28.3819 12.9865C28.3819 21.0841 21.8174 27.6486 13.7198 27.6486C10.784 27.6486 8.05059 26.7845 5.75781 25.2984C8.25879 27.7852 11.703 29.3243 15.5002 29.3243C23.123 29.3243 29.3245 23.1228 29.3245 15.5C29.3245 13.3675 28.8388 11.3463 27.9728 9.5408Z" fill="#FFB100"/>
<path d="M16.8367 3.29452C19.7698 3.18759 22.532 3.95097 24.8771 5.35196C22.411 3.07155 19.1157 1.67569 15.5001 1.67569C7.87733 1.67569 1.67578 7.87724 1.67578 15.5C1.67578 17.8092 2.24573 19.9876 3.25115 21.903C2.94565 20.8103 2.76163 19.665 2.71838 18.4812C2.42346 10.3889 8.7443 3.58955 16.8367 3.29452Z" fill="#FFE454"/>
<path d="M15.5 0C6.95331 0 0 6.95331 0 15.5C0 24.0467 6.95331 31 15.5 31C24.0467 31 31 24.0467 31 15.5C31 6.95331 24.0468 0 15.5 0ZM15.5 29.3243C11.7028 29.3243 8.25857 27.7852 5.75759 25.2984C4.75888 24.3054 3.91108 23.1609 3.25096 21.9031C2.24565 19.9876 1.6757 17.8092 1.6757 15.5C1.6757 7.87725 7.87725 1.6757 15.5 1.6757C19.1156 1.6757 22.4109 3.07156 24.8769 5.35197C26.1555 6.53418 27.2112 7.95391 27.9725 9.5408C28.8387 11.3463 29.3243 13.3675 29.3243 15.5C29.3243 23.1228 23.1228 29.3243 15.5 29.3243Z" fill="black"/>
<path d="M10.2018 11.9812C11.1025 11.9812 11.8353 12.6722 11.8353 13.6147H13.511C13.511 11.7296 12.0265 10.3055 10.2018 10.3055C8.37704 10.3055 6.89258 11.7296 6.89258 13.6147H8.56828C8.56828 12.6722 9.30119 11.9812 10.2018 11.9812Z" fill="black"/>
<path d="M20.7975 11.9812C21.6982 11.9812 22.431 12.6722 22.431 13.6147H24.1067C24.1067 11.7296 22.6222 10.3055 20.7975 10.3055C18.9727 10.3055 17.4883 11.7296 17.4883 13.6147H19.164C19.164 12.6722 19.8968 11.9812 20.7975 11.9812Z" fill="black"/>
<path d="M15.4706 24.0876C18.7125 24.0876 21.8193 22.4297 23.5982 19.6771L22.1907 18.7676C20.5573 21.2953 17.5685 22.706 14.5775 22.3607C12.2459 22.0919 10.0898 20.7486 8.80972 18.7676L7.40234 19.6771C8.95132 22.0743 11.5618 23.6997 14.3854 24.0253C14.7479 24.0672 15.1098 24.0876 15.4706 24.0876Z" fill="black"/>
</g>
<defs>
<clipPath id="clip0_121_1500">
<rect width="31" height="31" fill="white"/>
</clipPath>
</defs>
</svg>
